<svg width="673" height="305" viewBox="0 0 673 305" fill="none" xmlns="http://www.w3.org/2000/svg">
<path d="M286.04 187L298.6 127.8H320.2C324.787 127.8 328.573 128.653 331.56 130.36C334.547 132.067 336.76 134.28 338.2 137C339.693 139.72 340.44 142.6 340.44 145.64C340.44 148.253 339.907 150.84 338.84 153.4C337.827 155.96 336.307 158.307 334.28 160.44C332.253 162.52 329.747 164.2 326.76 165.48C323.827 166.707 320.44 167.32 316.6 167.32H302.52L298.36 187H286.04ZM318.92 138.6H308.68L304.84 156.6H317.24C319.533 156.6 321.48 156.12 323.08 155.16C324.68 154.147 325.88 152.867 326.68 151.32C327.533 149.773 327.96 148.227 327.96 146.68C327.96 144.547 327.213 142.68 325.72 141.08C324.28 139.427 322.013 138.6 318.92 138.6ZM364.731 143.8C366.971 143.8 368.865 144.12 370.411 144.76C371.958 145.347 373.185 146.067 374.091 146.92C375.051 147.72 375.771 148.52 376.251 149.32C376.731 150.067 377.051 150.627 377.211 151H377.771L379.131 144.6H391.371L382.411 187H370.251L371.291 181.8H370.731C370.731 181.8 370.518 182.12 370.091 182.76C369.665 183.347 368.971 184.04 368.011 184.84C367.051 185.587 365.798 186.28 364.251 186.92C362.758 187.507 360.891 187.8 358.651 187.8C355.078 187.8 352.118 186.947 349.771 185.24C347.478 183.533 345.745 181.32 344.571 178.6C343.451 175.827 342.891 172.84 342.891 169.64C342.891 166.6 343.371 163.56 344.331 160.52C345.291 157.48 346.705 154.707 348.571 152.2C350.438 149.64 352.731 147.613 355.451 146.12C358.171 144.573 361.265 143.8 364.731 143.8ZM367.131 153.64C364.625 153.64 362.465 154.413 360.651 155.96C358.838 157.453 357.451 159.347 356.491 161.64C355.531 163.933 355.051 166.2 355.051 168.44C355.051 171 355.691 173.24 356.971 175.16C358.305 177.027 360.385 177.96 363.211 177.96C365.665 177.96 367.798 177.213 369.611 175.72C371.425 174.173 372.811 172.28 373.771 170.04C374.731 167.747 375.211 165.453 375.211 163.16C375.211 160.6 374.545 158.387 373.211 156.52C371.931 154.6 369.905 153.64 367.131 153.64ZM390.482 202.6C389.042 202.6 387.949 202.547 387.202 202.44C386.455 202.333 386.082 202.28 386.082 202.28L388.162 192.12C388.162 192.12 388.482 192.147 389.122 192.2C389.709 192.307 390.429 192.36 391.282 192.36C393.415 192.36 395.415 191.96 397.282 191.16C399.149 190.413 400.935 188.947 402.642 186.76L396.162 144.6H407.762L411.522 173.32L427.202 144.6H440.162L416.402 185.32C412.989 191.133 409.255 195.453 405.202 198.28C401.149 201.16 396.242 202.6 390.482 202.6Z" fill="#FCFCFC"/>
<path d="M466.298 187L468.618 176.04L439.418 175.96L442.218 162.84L473.018 127.8H494.218L486.698 163.24H495.098L492.378 176.04H483.978L481.658 187H466.298ZM457.658 163.24H471.338L475.658 142.76L457.658 163.24Z" fill="#D7D7D7"/>
<path d="M499.087 187L511.647 127.8H533.247C537.834 127.8 541.62 128.653 544.607 130.36C547.594 132.067 549.807 134.28 551.247 137C552.74 139.72 553.487 142.6 553.487 145.64C553.487 148.253 552.954 150.84 551.887 153.4C550.874 155.96 549.354 158.307 547.327 160.44C545.3 162.52 542.794 164.2 539.807 165.48C536.874 166.707 533.487 167.32 529.647 167.32H515.567L511.407 187H499.087ZM531.967 138.6H521.727L517.887 156.6H530.287C532.58 156.6 534.527 156.12 536.127 155.16C537.727 154.147 538.927 152.867 539.727 151.32C540.58 149.773 541.007 148.227 541.007 146.68C541.007 144.547 540.26 142.68 538.767 141.08C537.327 139.427 535.06 138.6 531.967 138.6ZM553.218 187L562.258 144.6H574.338L573.058 150.76H573.458C574.685 148.733 576.311 147.08 578.338 145.8C580.418 144.467 582.951 143.8 585.938 143.8C587.058 143.8 587.938 143.88 588.578 144.04C589.218 144.147 589.538 144.2 589.538 144.2L587.058 156.04C587.058 156.04 586.738 155.987 586.098 155.88C585.458 155.773 584.658 155.72 583.698 155.72C579.751 155.72 576.525 157.08 574.018 159.8C571.565 162.52 569.831 166.28 568.818 171.08L565.378 187H553.218ZM610.228 187.8C605.748 187.8 602.068 186.893 599.188 185.08C596.308 183.267 594.148 180.92 592.708 178.04C591.321 175.107 590.628 171.987 590.628 168.68C590.628 165.747 591.161 162.813 592.228 159.88C593.294 156.947 594.868 154.28 596.948 151.88C599.081 149.427 601.668 147.48 604.708 146.04C607.748 144.547 611.268 143.8 615.268 143.8C619.694 143.8 623.348 144.707 626.228 146.52C629.108 148.333 631.268 150.707 632.708 153.64C634.148 156.52 634.868 159.613 634.868 162.92C634.868 165.907 634.308 168.867 633.188 171.8C632.121 174.733 630.521 177.4 628.388 179.8C626.308 182.2 623.748 184.147 620.708 185.64C617.668 187.08 614.174 187.8 610.228 187.8ZM610.788 177.88C613.241 177.88 615.321 177.16 617.028 175.72C618.788 174.227 620.148 172.36 621.108 170.12C622.068 167.88 622.548 165.56 622.548 163.16C622.548 160.653 621.908 158.467 620.628 156.6C619.348 154.68 617.321 153.72 614.548 153.72C612.148 153.72 610.068 154.467 608.307 155.96C606.548 157.4 605.188 159.24 604.228 161.48C603.268 163.72 602.788 166.04 602.788 168.44C602.788 170.947 603.428 173.16 604.708 175.08C605.988 176.947 608.014 177.88 610.788 177.88Z" fill="#A5A5A5"/>
<path d="M155 220L177.468 85H235.884C245.929 85 254.387 86.9775 261.26 90.9326C268.132 94.8877 273.066 100.447 276.062 107.61C279.058 114.773 279.762 123.145 278.177 132.725C276.591 142.48 273.066 150.896 267.603 157.971C262.185 165.002 255.268 170.43 246.854 174.253C238.483 178.032 229.1 179.922 218.703 179.922H183.812L188.57 151.445H216.06C220.465 151.445 224.342 150.698 227.69 149.204C231.038 147.666 233.748 145.513 235.818 142.744C237.889 139.932 239.232 136.592 239.849 132.725C240.466 128.857 240.179 125.562 238.99 122.837C237.845 120.068 235.862 117.959 233.043 116.509C230.267 115.015 226.721 114.268 222.403 114.268H209.451L191.741 220H155Z" fill="url(#paint0_linear_257_40)"/>
<path fill-rule="evenodd" clip-rule="evenodd" d="M67 198.906L71.7451 170.43L85.883 152.808C88.902 153.972 92.1821 154.609 95.6112 154.609C110.559 154.609 122.676 142.49 122.676 127.539C122.676 122.005 121.015 116.858 118.165 112.571L140.285 85H152.412H166.12H186.682L172.502 170.43H188L183.255 198.906H167.776L164.275 220H129.214L132.759 198.906H67Z" fill="url(#paint1_linear_257_40)"/>
<path d="M35 220L57.4678 85H115.884C125.929 85 134.387 86.9775 141.26 90.9326C148.132 94.8877 153.066 100.447 156.062 107.61C159.058 114.773 159.762 123.145 158.177 132.725C156.591 142.48 153.066 150.896 147.603 157.971C142.185 165.002 135.268 170.43 126.854 174.253C118.483 178.032 109.1 179.922 98.7029 179.922H63.8117L68.5696 151.445H96.0596C100.465 151.445 104.342 150.698 107.69 149.204C111.038 147.666 113.748 145.513 115.818 142.744C117.889 139.932 119.232 136.592 119.849 132.725C120.466 128.857 120.179 125.562 118.99 122.837C117.845 120.068 115.862 117.959 113.043 116.509C110.267 115.015 106.721 114.268 102.403 114.268H89.4514L71.7415 220H35Z" fill="url(#paint2_linear_257_40)"/>
<defs>
<linearGradient id="paint0_linear_257_40" x1="187.523" y1="85" x2="187.523" y2="220" gradientUnits="userSpaceOnUse">
<stop stop-color="#A8A8A8"/>
<stop offset="1" stop-color="#3D3D3D"/>
</linearGradient>
<linearGradient id="paint1_linear_257_40" x1="98.736" y1="85" x2="98.736" y2="220" gradientUnits="userSpaceOnUse">
<stop stop-color="#DCDCDC"/>
<stop offset="1" stop-color="#6D6D6D"/>
</linearGradient>
<linearGradient id="paint2_linear_257_40" x1="67.5228" y1="85" x2="67.5228" y2="220" gradientUnits="userSpaceOnUse">
<stop stop-color="white"/>
<stop offset="1" stop-color="#999999"/>
</linearGradient>
</defs>
</svg>
